# xmcd CD database file
#
# Track frame offsets:
#	150
#	16002
#	36502
#	59042
#	80801
#	102521
#	118090
#	121513
#	145396
#	160383
#	163569
#	183955
#	206734
#	217329
#
# Disc length: 3209 seconds
#
# Revision: 0
# Processed by: cddbd v1.5.2PL0 Copyright (c) Steve Scherf et al.
# Submitted via: CDex 1.51
#
DISCID=d20c870e
DTITLE=Dave Goodman and Steve Baker - The Wine Dark Sea
DYEAR=2012
DGENRE=Blues
TTITLE0=Sweet Maybelline
TTITLE1=Leavin' On My Mind
TTITLE2=Headin' For A Fall
TTITLE3=And She Said
TTITLE4=The Shack
TTITLE5=The Letter
TTITLE6=Friends Departed
TTITLE7=Goodbye Gary
TTITLE8=Leave It All Behind
TTITLE9=The Mill Of The Stranger
TTITLE10=Hard Time Killing Floor
TTITLE11=Maybe She's Afraid
TTITLE12=The Shack Slight Return
TTITLE13=Tiger By The Tail
EXTD=YEAR: 2012
EXTT0=
EXTT1=
EXTT2=
EXTT3=
EXTT4=
EXTT5=
EXTT6=
EXTT7=
EXTT8=
EXTT9=
EXTT10=
EXTT11=
EXTT12=
EXTT13=
PLAYORDER=
